<svg width="28" height="35" viewBox="0 0 28 35" fill="none" xmlns="http://www.w3.org/2000/svg">
<path fill-rule="evenodd" clip-rule="evenodd" d="M24.2379 5.07893C24.2379 5.66527 24.1549 6.23222 24 6.76867V7.17388L27 10.1739V4V1H24H22.6664C23.643 2.07857 24.2379 3.50927 24.2379 5.07893ZM3 1H13.6516C12.9041 1.82556 12.3802 2.85743 12.1755 4H3V26.9394C3 28.5962 4.34315 29.9394 6 29.9394H11H12.077L12.9081 30.6244L13.6643 31.2477L14.8015 30.4665L15.5689 29.9394H16.5H21C22.6569 29.9394 24 28.5962 24 26.9394V13.7554L27 16.7554V26.9394C27 30.2531 24.3137 32.9394 21 32.9394H16.5L13.5 35L11 32.9394H6C2.68629 32.9394 0 30.2531 0 26.9394V4V1H3Z" fill="#B91827"/>
<mask id="path-2-inside-1_46_479" fill="white">
<path d="M6.1543 22H12.334V31H6.1543V22Z"/>
</mask>
<path d="M6.1543 22V20H4.1543V22H6.1543ZM12.334 22H14.334V20H12.334V22ZM6.1543 24H12.334V20H6.1543V24ZM10.334 22V31H14.334V22H10.334ZM8.1543 31V22H4.1543V31H8.1543Z" fill="#B91827" mask="url(#path-2-inside-1_46_479)"/>
<mask id="path-4-inside-2_46_479" fill="white">
<path d="M13.0801 17.8395H19.8247V31.8395H13.0801V17.8395Z"/>
</mask>
<path d="M13.0801 17.8395V15.3395H10.5801V17.8395H13.0801ZM19.8247 17.8395H22.3247V15.3395H19.8247V17.8395ZM13.0801 20.3395H19.8247V15.3395H13.0801V20.3395ZM17.3247 17.8395V31.8395H22.3247V17.8395H17.3247ZM15.5801 31.8395V17.8395H10.5801V31.8395H15.5801Z" fill="#B91827" mask="url(#path-4-inside-2_46_479)"/>
<mask id="path-6-inside-3_46_479" fill="white">
<path d="M17.3477 23.3745H23.3477V31.3745H17.3477V23.3745Z"/>
</mask>
<path d="M17.3477 23.3745V21.3745H15.3477V23.3745H17.3477ZM23.3477 23.3745H25.8477V21.3745H23.3477V23.3745ZM17.3477 25.3745H23.3477V21.3745H17.3477V25.3745ZM20.8477 23.3745V31.3745H25.8477V23.3745H20.8477ZM19.3477 31.3745V23.3745H15.3477V31.3745H19.3477Z" fill="#B91827" mask="url(#path-6-inside-3_46_479)"/>
<rect x="8.22314" y="10.9752" width="2.5" height="11.0248" fill="#B91827"/>
<rect x="14.5713" y="10.9752" width="2.5" height="9.19089" fill="#B91827"/>
<rect x="17.0713" y="10.9752" width="2.5" height="8.84814" transform="rotate(90 17.0713 10.9752)" fill="#B91827"/>
<rect x="20.3477" y="8.91188" width="2.96924" height="7.82824" transform="rotate(-45 20.3477 8.91188)" fill="#B91827"/>
<circle cx="18.159" cy="5.07893" r="4.07893" stroke="#B91827" stroke-width="2"/>
</svg>
